<svg xmlns="http://www.w3.org/2000/svg" xmlns:xlink="http://www.w3.org/1999/xlink" width="160pt" height="242pt" viewBox="0 0 160 242"><g id="graph1" class="graph" transform="scale(1 1) rotate(0) translate(4 238)"><title>Examples_EdgesToAndFromClusters</title><polygon fill="#fff" stroke="#fff" points="-4 5 -4 -238 157 -238 157 5 -4 5"/><g id="graph2" class="cluster"><title>cluster_one</title><polygon fill="none" stroke="#000" points="8 -146 8 -226 144 -226 144 -146 8 -146"/><text x="76" y="-209.4" font-family="Arial, Sans-Serif" font-size="14" text-anchor="middle">Cluster One</text></g><g id="graph3" class="cluster"><title>cluster_two</title><polygon fill="none" stroke="#000" points="9 -8 9 -88 143 -88 143 -8 9 -8"/><text x="76" y="-17.4" font-family="Arial, Sans-Serif" font-size="14" text-anchor="middle">Cluster Two</text></g><g id="node2" class="node"><title>one</title><ellipse cx="76" cy="-173" fill="none" stroke="#000" rx="60.104" ry="18.385"/><text x="76" y="-169.4" font-family="Arial, Sans-Serif" font-size="14" text-anchor="middle">Node One</text></g><g id="node4" class="node"><title>two</title><ellipse cx="76" cy="-61" fill="none" stroke="#000" rx="58.898" ry="18.385"/><text x="76" y="-57.4" font-family="Arial, Sans-Serif" font-size="14" text-anchor="middle">Node Two</text></g><g id="edge4" class="edge"><title>one-&gt;two</title><path fill="none" stroke="#000" d="M46.2677,-156.474C33.703,-137.922 32.1345,-107.611 41.5622,-86.1227"/><polygon fill="#000" stroke="#000" points="44.703 -87.676 46.47 -77.23 38.574 -84.294 44.703 -87.676"/></g><g id="edge6" class="edge"><title>one-&gt;two</title><path fill="none" stroke="red" d="M64.2689,-146.078C61.9813,-128.993 61.9125,-106.91 64.0625,-89.5247"/><polygon fill="red" stroke="red" points="67.539 -89.949 65.662 -79.522 60.627 -88.844 67.539 -89.949"/></g><g id="edge8" class="edge"><title>one-&gt;two</title><path fill="none" stroke="green" d="M86.3326,-154.505C89.9273,-136.834 90.4623,-109.941 87.9375,-89.5247"/><polygon fill="green" stroke="green" points="94.254 -96.027 87.338 -88 87.739 -98.587 94.254 -96.027"/></g><g id="edge10" class="edge"><title>one-&gt;two</title><path fill="none" stroke="#00f" d="M111.179,-146.114C117.059,-131.501 118.066,-113.225 114.199,-97.3575"/><polygon fill="#00f" stroke="#00f" points="117.471 -96.1 111.083 -87.648 110.806 -98.239 117.471 -96.1"/></g></g></svg>