<svg xmlns="http://www.w3.org/2000/svg" xmlns:xlink="http://www.w3.org/1999/xlink" width="284pt" height="376pt" viewBox="0 0 284 376"><g id="graph1" class="graph" transform="scale(1 1) rotate(0) translate(4 372)"><title>Examples_LampFlowChart</title><polygon fill="#fff" stroke="#fff" points="-4 5 -4 -372 281 -372 281 5 -4 5"/><g id="node2" class="node"><title>start_LampDoesNotWork</title><polygon fill="#ffbfc9" stroke="#ffbfc9" stroke-width="1.35" points="136 -368 12 -368 0 -356 0 -344 12 -332 136 -332 148 -344 148 -356 136 -368"/><path fill="#ffbfc9" stroke="#ffbfc9" stroke-width="1.35" d="M12,-368C6,-368 3.78956e-14,-362 3.31587e-14,-356"/><path fill="#ffbfc9" stroke="#ffbfc9" stroke-width="1.35" d="M2.36848e-14,-344C1.89478e-14,-338 6,-332 12,-332"/><path fill="#ffbfc9" stroke="#ffbfc9" stroke-width="1.35" d="M136,-332C142,-332 148,-338 148,-344"/><path fill="#ffbfc9" stroke="#ffbfc9" stroke-width="1.35" d="M148,-356C148,-362 142,-368 136,-368"/><polyline fill="none" stroke="#000" stroke-width="1.35" points="136 -368 12 -368"/><path fill="none" stroke="#000" stroke-width="1.35" d="M12,-368C6,-368 3.78956e-14,-362 3.31587e-14,-356"/><polyline fill="none" stroke="#000" stroke-width="1.35" points="0 -356 0 -344"/><path fill="none" stroke="#000" stroke-width="1.35" d="M2.36848e-14,-344C1.89478e-14,-338 6,-332 12,-332"/><polyline fill="none" stroke="#000" stroke-width="1.35" points="12 -332 136 -332"/><path fill="none" stroke="#000" stroke-width="1.35" d="M136,-332C142,-332 148,-338 148,-344"/><polyline fill="none" stroke="#000" stroke-width="1.35" points="148 -344 148 -356"/><path fill="none" stroke="#000" stroke-width="1.35" d="M148,-356C148,-362 142,-368 136,-368"/><text x="74" y="-346.4" font-family="Arial, Sans-Serif" font-size="14" text-anchor="middle">Lamp doesn&apos;t work</text></g><g id="node4" class="node"><title>question_LampPluggedIn</title><polygon fill="#ffff8a" stroke="#000" stroke-width="1.35" points="74 -296 2 -249 74 -202 146 -249 74 -296"/><text x="74" y="-254.4" font-family="Arial, Sans-Serif" font-size="14" text-anchor="middle">Lamp</text><text x="74" y="-236.4" font-family="Arial, Sans-Serif" font-size="14" text-anchor="middle">plugged in?</text></g><g id="edge5" class="edge"><title>start_LampDoesNotWork-&gt;question_LampPluggedIn</title><path fill="none" stroke="#000" stroke-width="1.75" d="M74,-331.943C74,-325.546 74,-317.944 74,-309.978"/><polygon fill="none" stroke="#000" points="78.725 -309.876 74 -296.376 69.275 -309.876 78.725 -309.876"/></g><g id="node5" class="node"><title>question_BulbBurnedOut</title><polygon fill="#ffff8a" stroke="#000" stroke-width="1.35" points="74 -166 2 -119 74 -72 146 -119 74 -166"/><text x="74" y="-124.4" font-family="Arial, Sans-Serif" font-size="14" text-anchor="middle">Bulb</text><text x="74" y="-106.4" font-family="Arial, Sans-Serif" font-size="14" text-anchor="middle">burned out?</text></g><g id="edge7" class="edge"><title>question_LampPluggedIn-&gt;question_BulbBurnedOut</title><path fill="none" stroke="#000" stroke-width="1.75" d="M74,-201.699C74,-194.53 74,-187.05 74,-179.646"/><polygon fill="none" stroke="#000" points="78.725 -179.548 74 -166.048 69.275 -179.548 78.725 -179.548"/><text x="88.142" y="-183.957" font-family="Arial, Sans-Serif" font-size="14" text-anchor="middle">Yes</text></g><g id="node7" class="node"><title>answer_PlugInLamp</title><polygon fill="#8bef91" stroke="#8bef91" stroke-width="1.35" points="262 -267 186 -267 174 -255 174 -243 186 -231 262 -231 274 -243 274 -255 262 -267"/><path fill="#8bef91" stroke="#8bef91" stroke-width="1.35" d="M186,-267C180,-267 174,-261 174,-255"/><path fill="#8bef91" stroke="#8bef91" stroke-width="1.35" d="M174,-243C174,-237 180,-231 186,-231"/><path fill="#8bef91" stroke="#8bef91" stroke-width="1.35" d="M262,-231C268,-231 274,-237 274,-243"/><path fill="#8bef91" stroke="#8bef91" stroke-width="1.35" d="M274,-255C274,-261 268,-267 262,-267"/><polyline fill="none" stroke="#000" stroke-width="1.35" points="262 -267 186 -267"/><path fill="none" stroke="#000" stroke-width="1.35" d="M186,-267C180,-267 174,-261 174,-255"/><polyline fill="none" stroke="#000" stroke-width="1.35" points="174 -255 174 -243"/><path fill="none" stroke="#000" stroke-width="1.35" d="M174,-243C174,-237 180,-231 186,-231"/><polyline fill="none" stroke="#000" stroke-width="1.35" points="186 -231 262 -231"/><path fill="none" stroke="#000" stroke-width="1.35" d="M262,-231C268,-231 274,-237 274,-243"/><polyline fill="none" stroke="#000" stroke-width="1.35" points="274 -243 274 -255"/><path fill="none" stroke="#000" stroke-width="1.35" d="M274,-255C274,-261 268,-267 262,-267"/><text x="224" y="-245.4" font-family="Arial, Sans-Serif" font-size="14" text-anchor="middle">Plug lamp in</text></g><g id="edge13" class="edge"><title>question_LampPluggedIn-&gt;answer_PlugInLamp</title><path fill="none" stroke="#000" stroke-width="1.75" d="M146.07,-249C150.687,-249 155.304,-249 159.921,-249"/><polygon fill="none" stroke="#000" points="160.272 -253.725 173.772 -249 160.272 -244.275 160.272 -253.725"/><text x="146.07" y="-265.4" font-family="Arial, Sans-Serif" font-size="14" text-anchor="middle">No</text></g><g id="node8" class="node"><title>answer_ReplaceBulb</title><polygon fill="#8bef91" stroke="#8bef91" stroke-width="1.35" points="264 -137 186 -137 174 -125 174 -113 186 -101 264 -101 276 -113 276 -125 264 -137"/><path fill="#8bef91" stroke="#8bef91" stroke-width="1.35" d="M186,-137C180,-137 174,-131 174,-125"/><path fill="#8bef91" stroke="#8bef91" stroke-width="1.35" d="M174,-113C174,-107 180,-101 186,-101"/><path fill="#8bef91" stroke="#8bef91" stroke-width="1.35" d="M264,-101C270,-101 276,-107 276,-113"/><path fill="#8bef91" stroke="#8bef91" stroke-width="1.35" d="M276,-125C276,-131 270,-137 264,-137"/><polyline fill="none" stroke="#000" stroke-width="1.35" points="264 -137 186 -137"/><path fill="none" stroke="#000" stroke-width="1.35" d="M186,-137C180,-137 174,-131 174,-125"/><polyline fill="none" stroke="#000" stroke-width="1.35" points="174 -125 174 -113"/><path fill="none" stroke="#000" stroke-width="1.35" d="M174,-113C174,-107 180,-101 186,-101"/><polyline fill="none" stroke="#000" stroke-width="1.35" points="186 -101 264 -101"/><path fill="none" stroke="#000" stroke-width="1.35" d="M264,-101C270,-101 276,-107 276,-113"/><polyline fill="none" stroke="#000" stroke-width="1.35" points="276 -113 276 -125"/><path fill="none" stroke="#000" stroke-width="1.35" d="M276,-125C276,-131 270,-137 264,-137"/><text x="225" y="-115.4" font-family="Arial, Sans-Serif" font-size="14" text-anchor="middle">Replace bulb</text></g><g id="edge16" class="edge"><title>question_BulbBurnedOut-&gt;answer_ReplaceBulb</title><path fill="none" stroke="#000" stroke-width="1.75" d="M146.256,-119C150.87,-119 155.484,-119 160.098,-119"/><polygon fill="none" stroke="#000" points="160.439 -123.725 173.939 -119 160.439 -114.275 160.439 -123.725"/><text x="146.256" y="-135.4" font-family="Arial, Sans-Serif" font-size="14" text-anchor="middle">Yes</text></g><g id="node9" class="node"><title>answer_BuyNewLamp</title><polygon fill="#8bef91" stroke="#8bef91" stroke-width="1.35" points="111 -36 37 -36 25 -24 25 -12 37 0 111 0 123 -12 123 -24 111 -36"/><path fill="#8bef91" stroke="#8bef91" stroke-width="1.35" d="M37,-36C31,-36 25,-30 25,-24"/><path fill="#8bef91" stroke="#8bef91" stroke-width="1.35" d="M25,-12C25,-6 31,-1.00056e-14 37,-9.35306e-15"/><path fill="#8bef91" stroke="#8bef91" stroke-width="1.35" d="M111,-1.30508e-15C117,-6.52539e-16 123,-6 123,-12"/><path fill="#8bef91" stroke="#8bef91" stroke-width="1.35" d="M123,-24C123,-30 117,-36 111,-36"/><polyline fill="none" stroke="#000" stroke-width="1.35" points="111 -36 37 -36"/><path fill="none" stroke="#000" stroke-width="1.35" d="M37,-36C31,-36 25,-30 25,-24"/><polyline fill="none" stroke="#000" stroke-width="1.35" points="25 -24 25 -12"/><path fill="none" stroke="#000" stroke-width="1.35" d="M25,-12C25,-6 31,-1.00056e-14 37,-9.35306e-15"/><polyline fill="none" stroke="#000" stroke-width="1.35" points="37 0 111 0"/><path fill="none" stroke="#000" stroke-width="1.35" d="M111,-1.30508e-15C117,-6.52539e-16 123,-6 123,-12"/><polyline fill="none" stroke="#000" stroke-width="1.35" points="123 -12 123 -24"/><path fill="none" stroke="#000" stroke-width="1.35" d="M123,-24C123,-30 117,-36 111,-36"/><text x="74" y="-14.4" font-family="Arial, Sans-Serif" font-size="14" text-anchor="middle">Repair lamp</text></g><g id="edge9" class="edge"><title>question_BulbBurnedOut-&gt;answer_BuyNewLamp</title><path fill="none" stroke="#000" stroke-width="1.75" d="M74,-71.7529C74,-64.4128 74,-56.9807 74,-50.0803"/><polygon fill="none" stroke="#000" points="78.725 -49.968 74 -36.468 69.275 -49.968 78.725 -49.968"/><text x="88.142" y="-54.011" font-family="Arial, Sans-Serif" font-size="14" text-anchor="middle">No</text></g></g></svg>